<svg xmlns="http://www.w3.org/2000/svg" viewBox="0 0 96.59 76.47"><defs><style>.cls-1{fill:#0081c6;}.cls-2{fill:#808083;}</style></defs><title>Recurso 1</title><g id="Capa_2" data-name="Capa 2"><g id="Capa_1-2" data-name="Capa 1"><g id="_Grupo_" data-name="&lt;Grupo&gt;"><g id="_Grupo_2" data-name="&lt;Grupo&gt;"><path id="_Trazado_compuesto_" data-name="&lt;Trazado compuesto&gt;" class="cls-1" d="M8.44,64.41c-.74.07-1.41.1-2,.1a9.5,9.5,0,0,1-4.16-.69A3.42,3.42,0,0,1,.45,61.53,19.21,19.21,0,0,1,0,56.69a19.24,19.24,0,0,1,.45-4.82,3.51,3.51,0,0,1,1.79-2.31,9.33,9.33,0,0,1,4.16-.7c.64,0,1.32,0,2,.11.37,0,.71.09,1,.14a.91.91,0,0,1,.76.9v.79a.92.92,0,0,1-1,.91c-.82-.08-1.48-.11-2-.11a8.88,8.88,0,0,0-2.8.3,1.63,1.63,0,0,0-1,1.27,18.51,18.51,0,0,0-.22,3.52A18.32,18.32,0,0,0,3.4,60.2a1.65,1.65,0,0,0,1,1.28,8.88,8.88,0,0,0,2.8.3,20,20,0,0,0,2.1-.1.92.92,0,0,1,1,.91v.79a.91.91,0,0,1-.78.91Q9,64.37,8.44,64.41Z"/><path id="_Trazado_compuesto_2" data-name="&lt;Trazado compuesto&gt;" class="cls-1" d="M16.1,63.85a3.08,3.08,0,0,1-1.68-2.18,25,25,0,0,1-.35-5,24.88,24.88,0,0,1,.35-5,3.06,3.06,0,0,1,1.68-2.18,10.68,10.68,0,0,1,4.47-.67,10.77,10.77,0,0,1,4.48.67,3.08,3.08,0,0,1,1.69,2.18,25.08,25.08,0,0,1,.34,5,25.21,25.21,0,0,1-.34,5,3.09,3.09,0,0,1-1.69,2.18,11,11,0,0,1-4.48.66A10.88,10.88,0,0,1,16.1,63.85Zm6.84-2.32a1.4,1.4,0,0,0,.77-1.19,25.48,25.48,0,0,0,.17-3.65A25.65,25.65,0,0,0,23.71,53a1.42,1.42,0,0,0-.77-1.19,7.64,7.64,0,0,0-2.37-.24,7.52,7.52,0,0,0-2.36.24,1.45,1.45,0,0,0-.78,1.2,23.78,23.78,0,0,0-.18,3.65,23.62,23.62,0,0,0,.18,3.64,1.45,1.45,0,0,0,.78,1.2,7.14,7.14,0,0,0,2.36.25A7.25,7.25,0,0,0,22.94,61.53Z"/><path id="_Trazado_compuesto_3" data-name="&lt;Trazado compuesto&gt;" class="cls-1" d="M31.64,63.42V50a.92.92,0,0,1,.92-.92h1.32a.92.92,0,0,1,.92.92V60.55a.92.92,0,0,0,.92.92h4.63a.92.92,0,0,1,.92.92v1a.92.92,0,0,1-.92.92H32.56A.92.92,0,0,1,31.64,63.42Z"/><path id="_Trazado_compuesto_4" data-name="&lt;Trazado compuesto&gt;" class="cls-1" d="M59.15,64.34a.92.92,0,0,1-.92-.92V53.89h-.11l-3.73,9.85a.93.93,0,0,1-.86.6h-.91a.93.93,0,0,1-.86-.6l-3.71-9.85h-.11v9.53a.92.92,0,0,1-.92.92H45.9a.92.92,0,0,1-.92-.92V50A.92.92,0,0,1,45.9,49h2.81a.92.92,0,0,1,.86.59l3.51,9.21h.13l3.51-9.21a.91.91,0,0,1,.86-.59h2.78a.92.92,0,0,1,.92.92V63.42a.92.92,0,0,1-.92.92Z"/><path id="_Trazado_compuesto_5" data-name="&lt;Trazado compuesto&gt;" class="cls-1" d="M66.28,63.42V50A.92.92,0,0,1,67.2,49h8.68a.92.92,0,0,1,.92.92v.9a.92.92,0,0,1-.92.91H70.36a.92.92,0,0,0-.92.92v1.63a.92.92,0,0,0,.92.92h4.48a.92.92,0,0,1,.91.92v.9a.92.92,0,0,1-.91.92H70.36a.92.92,0,0,0-.92.91v1.79a.92.92,0,0,0,.92.92h5.52a.92.92,0,0,1,.92.92v.9a.92.92,0,0,1-.92.92H67.2A.92.92,0,0,1,66.28,63.42Z"/><path id="_Trazado_compuesto_6" data-name="&lt;Trazado compuesto&gt;" class="cls-1" d="M81.22,50a.92.92,0,0,1,.92-.92h4.29a12.25,12.25,0,0,1,4.7.65,3.06,3.06,0,0,1,1.77,2.13,23.1,23.1,0,0,1,.35,4.87,23.1,23.1,0,0,1-.35,4.87,3,3,0,0,1-1.77,2.12,12,12,0,0,1-4.7.66H82.14a.92.92,0,0,1-.92-.92Zm5,11.64A10.47,10.47,0,0,0,89,61.38a1.35,1.35,0,0,0,.88-1.13,20.93,20.93,0,0,0,.19-3.56,19.61,19.61,0,0,0-.2-3.55A1.36,1.36,0,0,0,89,52a10.24,10.24,0,0,0-2.7-.23h-1a.92.92,0,0,0-.92.92v8a.92.92,0,0,0,.92.92Z"/></g><path id="_Trazado_compuesto_7" data-name="&lt;Trazado compuesto&gt;" class="cls-1" d="M86.29,33.32,54.18.52a1.34,1.34,0,0,0-2,0L47.88,5a1.4,1.4,0,0,1-2,0L41.56.44a1.36,1.36,0,0,0-2,0L35.26,4.92a1.4,1.4,0,0,1-2,0l-4-4.09a2.7,2.7,0,0,0-3.9,0l-18,18.54a2.91,2.91,0,0,0,0,4l18,18.53a2.72,2.72,0,0,0,3.9,0l16.55-17a1.39,1.39,0,0,1,2,0L64.89,42.32a1.34,1.34,0,0,0,2,0l4.36-4.48a1.4,1.4,0,0,1,2,0l4.34,4.48a1.33,1.33,0,0,0,1.94,0l6.81-7A1.46,1.46,0,0,0,86.29,33.32ZM43.52,22.5,28.35,38.1a1.38,1.38,0,0,1-2,0L12.19,23.52a1.5,1.5,0,0,1-.19-.25l-.85-.87a1.47,1.47,0,0,1,0-2L26.32,4.76a1.37,1.37,0,0,1,2,0l1.93,2a1.47,1.47,0,0,1,0,2L18.46,20.87a.77.77,0,0,0,0,1.06l8.39,8.63a.72.72,0,0,0,1,0L39.61,18.48a1.38,1.38,0,0,1,2,0l1.93,2A1.49,1.49,0,0,1,43.52,22.5Zm25.6,13.19-1.93,2a1.37,1.37,0,0,1-2,0l-24.46-25a.72.72,0,0,0-1,0L27.94,24.78a1.38,1.38,0,0,1-2,0L24,22.8a1.47,1.47,0,0,1,0-2L39.26,5.1a1.38,1.38,0,0,1,2,0L69.12,33.65A1.49,1.49,0,0,1,69.12,35.69Zm12.64,0-1.92,2a1.38,1.38,0,0,1-2,0L50.16,9.3a1.49,1.49,0,0,1,0-2l1.93-2a1.38,1.38,0,0,1,2,0L81.76,33.65A1.47,1.47,0,0,1,81.76,35.69Z"/><g id="_Grupo_3" data-name="&lt;Grupo&gt;"><path id="_Trazado_compuesto_8" data-name="&lt;Trazado compuesto&gt;" class="cls-2" d="M0,76.37v-8.8H1v8.8Z"/><path id="_Trazado_compuesto_9" data-name="&lt;Trazado compuesto&gt;" class="cls-2" d="M9.4,73a4.69,4.69,0,0,0-.11-1.19.68.68,0,0,0-.4-.48,2.83,2.83,0,0,0-1-.12,2,2,0,0,0-1.09.24,1,1,0,0,0-.43.65,5.91,5.91,0,0,0-.09,1.19v3.09h-1v-6h.84l.05.85H6.3A1.51,1.51,0,0,1,7,70.51a3,3,0,0,1,1.33-.24,2.86,2.86,0,0,1,1.32.25,1.25,1.25,0,0,1,.59.74,4.81,4.81,0,0,1,.15,1.36v3.75H9.4Z"/><path id="_Trazado_compuesto_10" data-name="&lt;Trazado compuesto&gt;" class="cls-2" d="M15,76.37V71.24H13.79v-.87H15V68.62h1v1.75H17.4v.87H16v5.13Z"/><path id="_Trazado_compuesto_11" data-name="&lt;Trazado compuesto&gt;" class="cls-2" d="M25.61,73.71H21.5a5,5,0,0,0,.11,1.23.8.8,0,0,0,.52.51,4.07,4.07,0,0,0,1.32.15,16.3,16.3,0,0,0,1.92-.13v.83a8.43,8.43,0,0,1-1,.12c-.4,0-.78,0-1.14,0a4.35,4.35,0,0,1-1.78-.28,1.4,1.4,0,0,1-.75-.91,7.42,7.42,0,0,1-.18-1.9,8.53,8.53,0,0,1,.16-1.87,1.42,1.42,0,0,1,.72-.93,3.76,3.76,0,0,1,1.77-.31,3.36,3.36,0,0,1,1.64.3,1.35,1.35,0,0,1,.64.91,9.39,9.39,0,0,1,.14,1.89Zm-3.54-2.43a.73.73,0,0,0-.45.51A4.58,4.58,0,0,0,21.5,73h3.19v-.09a3.48,3.48,0,0,0-.14-1.14.75.75,0,0,0-.44-.49,2.74,2.74,0,0,0-.94-.12A3.17,3.17,0,0,0,22.07,71.28Z"/><path id="_Trazado_compuesto_12" data-name="&lt;Trazado compuesto&gt;" class="cls-2" d="M29.52,70.37h.85l0,1.14h.07a1.54,1.54,0,0,1,.71-1,2.7,2.7,0,0,1,1.3-.27v1a2.61,2.61,0,0,0-1.25.24,1.31,1.31,0,0,0-.6.76,4.73,4.73,0,0,0-.17,1.39v2.68h-.95Z"/><path id="_Trazado_compuesto_13" data-name="&lt;Trazado compuesto&gt;" class="cls-2" d="M40,73a4.81,4.81,0,0,0-.1-1.19.7.7,0,0,0-.4-.48,2.91,2.91,0,0,0-1-.12,1.93,1.93,0,0,0-1.09.24,1,1,0,0,0-.44.65,6.06,6.06,0,0,0-.08,1.19v3.09H36v-6h.85l0,.85h.07a1.42,1.42,0,0,1,.66-.71,2.92,2.92,0,0,1,1.33-.24,2.79,2.79,0,0,1,1.31.25,1.26,1.26,0,0,1,.6.74A4.81,4.81,0,0,1,41,72.62v3.75H40Z"/><path id="_Trazado_compuesto_14" data-name="&lt;Trazado compuesto&gt;" class="cls-2" d="M45.23,76.09a1.69,1.69,0,0,1-.47-1.36,2.88,2.88,0,0,1,.16-1.09,1,1,0,0,1,.56-.56,2.81,2.81,0,0,1,1.12-.18l2.25.06v-.35a2.64,2.64,0,0,0-.14-1,.66.66,0,0,0-.49-.37A5.71,5.71,0,0,0,47,71.14c-.25,0-.57,0-1,0s-.68,0-.89.08v-.83a12.61,12.61,0,0,1,2.18-.17,4.43,4.43,0,0,1,1.58.22,1.17,1.17,0,0,1,.7.71,4.29,4.29,0,0,1,.18,1.42v3.75h-.86l0-.83h-.07a1.3,1.3,0,0,1-.79.75,4.19,4.19,0,0,1-1.29.18A2.42,2.42,0,0,1,45.23,76.09Zm2.83-.59a.85.85,0,0,0,.54-.41,2.38,2.38,0,0,0,.25-1.18v-.27h-2a3,3,0,0,0-.72.07.5.5,0,0,0-.32.28,1.49,1.49,0,0,0-.1.64,1.45,1.45,0,0,0,.11.63.58.58,0,0,0,.39.27,3.94,3.94,0,0,0,.9.08A3.51,3.51,0,0,0,48.06,75.5Z"/><path id="_Trazado_compuesto_15" data-name="&lt;Trazado compuesto&gt;" class="cls-2" d="M54.41,76.37V71.24H53.19v-.87h1.22V68.62h1v1.75H56.8v.87H55.36v5.13Z"/><path id="_Trazado_compuesto_16" data-name="&lt;Trazado compuesto&gt;" class="cls-2" d="M60.23,68.72v-1.1h1v1.1Zm0,7.65v-6h1v6Z"/><path id="_Trazado_compuesto_17" data-name="&lt;Trazado compuesto&gt;" class="cls-2" d="M66,76.22a1.23,1.23,0,0,1-.69-.86,9.3,9.3,0,0,1-.15-2,9.13,9.13,0,0,1,.15-2,1.21,1.21,0,0,1,.69-.86,4.54,4.54,0,0,1,1.8-.26,4.48,4.48,0,0,1,1.79.26,1.21,1.21,0,0,1,.69.86,9.13,9.13,0,0,1,.15,2,9.3,9.3,0,0,1-.15,2,1.23,1.23,0,0,1-.69.86,4.72,4.72,0,0,1-1.79.25A4.78,4.78,0,0,1,66,76.22Zm3-.78a.7.7,0,0,0,.41-.56,14.29,14.29,0,0,0,0-3,.72.72,0,0,0-.41-.56,3.15,3.15,0,0,0-1.19-.16,3.18,3.18,0,0,0-1.19.16.73.73,0,0,0-.42.56,16.32,16.32,0,0,0,0,3,.71.71,0,0,0,.42.56,3,3,0,0,0,1.19.16A3,3,0,0,0,68.94,75.44Z"/><path id="_Trazado_compuesto_18" data-name="&lt;Trazado compuesto&gt;" class="cls-2" d="M78.35,73a4.81,4.81,0,0,0-.1-1.19.7.7,0,0,0-.4-.48,2.91,2.91,0,0,0-1-.12,1.93,1.93,0,0,0-1.09.24,1,1,0,0,0-.44.65,5.91,5.91,0,0,0-.09,1.19v3.09h-.95v-6h.85l0,.85h.07a1.42,1.42,0,0,1,.66-.71,2.92,2.92,0,0,1,1.33-.24,2.79,2.79,0,0,1,1.31.25,1.25,1.25,0,0,1,.59.74,4.42,4.42,0,0,1,.16,1.36v3.75h-1Z"/><path id="_Trazado_compuesto_19" data-name="&lt;Trazado compuesto&gt;" class="cls-2" d="M83.56,76.09a1.69,1.69,0,0,1-.47-1.36,2.88,2.88,0,0,1,.16-1.09,1,1,0,0,1,.56-.56,2.81,2.81,0,0,1,1.12-.18l2.25.06v-.35a2.64,2.64,0,0,0-.14-1,.66.66,0,0,0-.49-.37,5.71,5.71,0,0,0-1.22-.09c-.25,0-.57,0-1,0s-.68,0-.89.08v-.83a12.61,12.61,0,0,1,2.18-.17,4.43,4.43,0,0,1,1.58.22,1.17,1.17,0,0,1,.7.71,4.29,4.29,0,0,1,.18,1.42v3.75h-.86l0-.83h-.07a1.3,1.3,0,0,1-.79.75,4.19,4.19,0,0,1-1.29.18A2.42,2.42,0,0,1,83.56,76.09Zm2.83-.59a.85.85,0,0,0,.54-.41,2.38,2.38,0,0,0,.25-1.18v-.27h-2a3,3,0,0,0-.72.07.5.5,0,0,0-.32.28,1.49,1.49,0,0,0-.1.64,1.45,1.45,0,0,0,.11.63.58.58,0,0,0,.39.27,3.82,3.82,0,0,0,.9.08A3.51,3.51,0,0,0,86.39,75.5Z"/><path id="_Trazado_compuesto_20" data-name="&lt;Trazado compuesto&gt;" class="cls-2" d="M92.3,76.37v-8.8h1v8.8Z"/></g><path id="_Trazado_compuesto_21" data-name="&lt;Trazado compuesto&gt;" class="cls-1" d="M96.12,46.07a1.72,1.72,0,0,1,.47,1.21A1.71,1.71,0,0,1,94.9,49a1.62,1.62,0,0,1-1.19-.53,1.69,1.69,0,0,1-.49-1.2,1.75,1.75,0,0,1,.25-.9,1.63,1.63,0,0,1,1.43-.83,1.66,1.66,0,0,1,1.22.52m-2.19.17a1.48,1.48,0,0,0-.43,1,1.39,1.39,0,0,0,.41,1,1.37,1.37,0,0,0,1,.44,1.43,1.43,0,0,0,1-.42,1.39,1.39,0,0,0,.42-1,1.45,1.45,0,0,0-.4-1,1.35,1.35,0,0,0-1-.43,1.32,1.32,0,0,0-1,.4m1,.11c.5,0,.75.17.75.52a.48.48,0,0,1-.38.47l.39.8h-.48l-.33-.73h-.21v.73h-.42V46.35Zm-.26.8h.21c.24,0,.36-.08.36-.26s-.12-.26-.38-.26h-.19Z"/></g></g></g></svg>