<svg xmlns="http://www.w3.org/2000/svg" viewBox="0 0 80.13 42.74"><defs><style>.cls-1{fill:#0081c6;}</style></defs><title>ico_colmed</title><g id="Capa_2" data-name="Capa 2"><g id="Capa_1-2" data-name="Capa 1"><path id="_Trazado_compuesto_" data-name="&lt;Trazado compuesto&gt;" class="cls-1" d="M79.73,33.32,47.62.52a1.34,1.34,0,0,0-1.95,0L41.32,5a1.4,1.4,0,0,1-2,0L35,.44a1.35,1.35,0,0,0-1.94,0L28.7,4.92a1.4,1.4,0,0,1-2,0l-4-4.09a2.69,2.69,0,0,0-3.89,0L.81,19.37a2.89,2.89,0,0,0,0,4l18,18.53a2.71,2.71,0,0,0,3.89,0l16.55-17a1.4,1.4,0,0,1,2,0L58.34,42.32a1.33,1.33,0,0,0,1.94,0l4.36-4.48a1.4,1.4,0,0,1,2,0L71,42.32a1.34,1.34,0,0,0,2,0l6.8-7A1.44,1.44,0,0,0,79.73,33.32ZM37,22.5,21.79,38.1a1.38,1.38,0,0,1-2,0L5.63,23.52a1.44,1.44,0,0,1-.18-.25l-.86-.87a1.49,1.49,0,0,1,0-2L19.76,4.76a1.38,1.38,0,0,1,2,0l1.92,2a1.47,1.47,0,0,1,0,2L11.9,20.87a.77.77,0,0,0,0,1.06l8.39,8.63a.72.72,0,0,0,1,0L33.06,18.48a1.37,1.37,0,0,1,2,0l1.93,2A1.49,1.49,0,0,1,37,22.5Zm25.6,13.19-1.92,2a1.38,1.38,0,0,1-2,0l-24.46-25a.72.72,0,0,0-1,0L21.38,24.78a1.38,1.38,0,0,1-2,0l-1.93-2a1.49,1.49,0,0,1,0-2L32.7,5.1a1.38,1.38,0,0,1,2,0L62.56,33.65A1.47,1.47,0,0,1,62.56,35.69Zm12.64,0-1.92,2a1.38,1.38,0,0,1-2,0L43.61,9.3a1.47,1.47,0,0,1,0-2l1.92-2a1.38,1.38,0,0,1,2,0L75.2,33.65A1.47,1.47,0,0,1,75.2,35.69Z"/></g></g></svg>